HIERARCHY
ROOT Hips
{
  OFFSET 0 0 0
  CHANNELS 6 Xposition Yposition Zposition Zrotation Yrotation Xrotation
  JOINT LeftThigh
  {
    OFFSET 8.409438 0 -5.917753
    CHANNELS 3 Zrotation Yrotation Xrotation
    JOINT LeftLeg
    {
      OFFSET 0 0 -42.358652
      CHANNELS 3 Zrotation Yrotation Xrotation
      JOINT LeftFoot
      {
        OFFSET 0 0 -39.357303
        CHANNELS 3 Zrotation Yrotation Xrotation
      }
    }
  }
  JOINT RightThigh
  {
    OFFSET -8.409438 0 -5.917753
    CHANNELS 3 Zrotation Yrotation Xrotation
    JOINT RightLeg
    {
      OFFSET 0 0 -42.358652
      CHANNELS 3 Zrotation Yrotation Xrotation
      JOINT RightFoot
      {
        OFFSET 0 0 -39.357303
        CHANNELS 3 Zrotation Yrotation Xrotation
      }
    }
  }
  JOINT SpineLow
  {
    OFFSET 0 0 4.719101
    CHANNELS 3 Zrotation Yrotation Xrotation
    JOINT SpineMid
    {
      OFFSET 0 0 12.899191
      CHANNELS 3 Zrotation Yrotation Xrotation
      JOINT Chest
      {
        OFFSET 0 0 12.899191
        CHANNELS 3 Zrotation Yrotation Xrotation
        JOINT LeftShoulder
        {
          OFFSET 7.550562 1.41573 9.438202
          CHANNELS 3 Zrotation Yrotation Xrotation
          JOINT LeftArm
          {
            OFFSET 9.155056 0 4.247191
            CHANNELS 3 Zrotation Yrotation Xrotation
            JOINT LeftForearm
            {
              OFFSET 0 0 25.771955
              CHANNELS 3 Zrotation Yrotation Xrotation
              JOINT LeftHand
              {
                OFFSET 0 0 25.197169
                CHANNELS 3 Zrotation Yrotation Xrotation
              }
            }
          }
        }
        JOINT RightShoulder
        {
          OFFSET -7.550562 1.41573 9.438202
          CHANNELS 3 Zrotation Yrotation Xrotation
          JOINT RightArm
          {
            OFFSET -9.155056 0 4.247191
            CHANNELS 3 Zrotation Yrotation Xrotation
            JOINT RightForearm
            {
              OFFSET 0 0 -25.771955
              CHANNELS 3 Zrotation Yrotation Xrotation
              JOINT RightHand
              {
                OFFSET 0 0 -25.197169
                CHANNELS 3 Zrotation Yrotation Xrotation
              }
            }
          }
        }
        JOINT Neck
        {
          OFFSET 0 0 15.101124
          CHANNELS 3 Zrotation Yrotation Xrotation
          JOINT Head
          {
            OFFSET 0 0 11.325843
            CHANNELS 3 Zrotation Yrotation Xrotation
            End Site
            {
              OFFSET 0 0 14.157303
            }
          }
        }
      }
    }
  }
}
MOTION
Frames: 13
Frame Time: 0.0
0.0  101.685394  0.0  2.895111  24.456474  -97.924246  3.583575  -18.07494  1.004712  -10.578895  15.690815  21.451885  -0.023476  2.974034  2.428173  -20.8931  17.58024  0.563207  -7.356584  3.751897  15.407279  -1.116602  1.719171  -1.386878  -1.639306  1.080888  2.632191  -4.360138  3.127276  7.122607  -4.360138  3.127276  7.122607  -15.276632  26.643413  6.20992  99.6247  63.957166  170.720312  -21.801556  -16.819039  71.127649  67.642073  -9.592051  -15.363832  14.008237  -15.708755  16.659117  99.838021  36.891234  52.408082  13.080845  29.332516  -22.804008  93.186673  -1.494623  -0.952771  -3.308007  -3.944344  -0.735462  -2.484782  -2.954387  -0.572779  
0.0  101.685394  0.0  2.955825  25.031401  -97.958372  3.293488  -18.009241  0.944567  -10.856039  15.777203  21.315326  0.02755  2.987713  2.480393  -21.141642  17.745338  0.816481  -7.615744  3.741359  15.193969  -1.220167  1.689954  -1.425436  -1.589727  1.109782  2.654001  -4.220604  3.202181  7.183014  -4.220605  3.202181  7.183014  -15.724384  26.35248  5.895419  98.389245  63.478448  170.680174  -22.858609  -14.731843  72.238085  67.354415  -10.323194  -16.452352  14.725771  -16.103899  16.306635  101.893643  36.742376  53.906605  15.659239  28.188659  -20.708195  93.428259  -1.804241  -1.508926  -3.842632  -4.060988  -0.809177  -2.886156  -3.040805  -0.632229  
0.0  101.685394  0.0  3.076043  25.721986  -97.912084  2.960122  -17.911174  0.892483  -11.107275  15.885378  21.18995  0.015056  2.972728  2.483223  -21.483364  17.934447  1.012414  -7.860731  3.749537  14.9759  -1.27837  1.668515  -1.447876  -1.57449  1.138506  2.658681  -4.175731  3.279203  7.194954  -4.175731  3.279203  7.194954  -15.749224  26.249093  5.733082  96.94811  62.991632  170.555078  -23.563602  -12.79218  73.26866  67.053394  -10.80553  -17.75341  15.626178  -16.422617  15.955281  103.81609  36.364069  55.289901  17.919163  26.931714  -18.732342  93.666942  -2.130927  -2.046765  -4.229019  -4.158757  -0.813312  -3.17592  -3.113627  -0.638575  
0.0  101.685394  0.0  3.084701  26.270443  -97.941857  2.77752  -17.968529  0.847085  -11.46566  16.05506  21.014608  0.040183  2.96694  2.489594  -21.752915  18.02672  1.227853  -8.137107  3.74663  14.755091  -1.274267  1.674392  -1.449048  -1.52735  1.160321  2.681449  -4.043471  3.334995  7.258444  -4.043471  3.334995  7.258443  -16.191786  25.915241  5.521339  95.589762  62.481724  170.592185  -23.748849  -11.98939  72.959422  65.883375  -12.022478  -18.98218  16.427539  -16.748852  15.444077  105.647939  35.715848  56.451821  19.823159  25.578857  -16.887061  93.735821  -2.38747  -2.629951  -4.72969  -4.290665  -0.863547  -3.551688  -3.211555  -0.680667  
0.0  101.685394  0.0  3.171977  27.009076  -97.86405  2.400979  -17.898285  0.721321  -11.672129  16.175706  20.942375  0.028404  2.955332  2.485231  -22.063789  18.134271  1.418223  -8.38404  3.763257  14.54222  -1.392727  1.670179  -1.463878  -1.539992  1.177464  2.682361  -4.076145  3.383203  7.259344  -4.076145  3.383203  7.259344  -16.169233  25.801964  5.427953  94.289602  61.930252  170.610875  -24.17348  -10.846546  73.566339  65.491799  -12.389897  -19.969784  17.371432  -16.83043  15.032177  107.1863  35.009241  57.27691  21.266799  24.168016  -15.300751  93.669311  -2.493389  -3.401915  -5.047566  -4.341691  -0.858276  -3.789976  -3.249454  -0.679374  
0.0  101.685394  0.0  3.171138  27.671472  -97.862646  2.276924  -18.019944  0.689283  -12.006895  16.370382  20.791408  -0.033719  2.917268  2.464003  -22.390052  18.193971  1.613519  -8.598507  3.767844  14.357735  -1.498076  1.686354  -1.477169  -1.553989  1.195667  2.68709  -4.112202  3.434682  7.270539  -4.112202  3.434682  7.270538  -16.376582  25.544907  5.233397  93.545037  61.239525  170.912602  -24.538081  -10.118643  74.022244  65.280299  -12.842639  -20.654453  18.374171  -16.957567  14.773313  108.453918  34.459386  57.926215  22.192618  22.691393  -14.031749  93.686662  -2.455998  -4.420102  -5.439103  -4.423441  -0.87189  -4.083629  -3.310145  -0.693096  
0.0  101.685394  0.0  3.228666  28.436527  -97.822583  1.947367  -18.012751  0.567328  -12.189018  16.514247  20.755541  -0.121028  2.902661  2.445213  -22.64509  18.247155  1.859817  -8.890368  3.811618  14.166646  -1.653552  1.691469  -1.497905  -1.602047  1.211568  2.676388  -4.242399  3.482634  7.237791  -4.242399  3.482634  7.237791  -16.247125  25.504694  5.171369  92.458302  60.47327  171.004991  -24.908452  -9.646294  74.382629  65.288955  -13.354823  -21.115486  19.334435  -16.954988  14.649601  109.380872  34.079162  58.322458  22.751105  21.268022  -13.051487  93.903212  -2.375137  -5.616278  -5.636095  -4.453075  -0.80883  -4.230852  -3.332695  -0.647524  
0.0  101.685394  0.0  3.248161  29.183402  -97.82436  1.820979  -18.087064  0.522009  -12.51105  16.665137  20.646193  -0.246032  2.872952  2.415406  -22.951434  18.308183  2.090769  -9.187329  3.862624  14.004775  -1.776314  1.684383  -1.523008  -1.661091  1.228702  2.666029  -4.402486  3.535114  7.205233  -4.402486  3.535114  7.205233  -16.375568  25.348334  5.033437  92.519454  59.768145  171.498513  -25.116929  -9.128573  75.020492  65.386202  -13.799579  -21.491795  20.36814  -17.014477  14.581253  109.789795  34.023226  58.499559  23.227438  19.986005  -12.221511  94.236687  -2.289503  -6.808038  -5.943261  -4.496414  -0.772565  -4.460856  -3.365185  -0.623004  
0.0  101.685394  0.0  3.288098  29.909544  -97.797245  1.681643  -18.113076  0.399481  -12.792175  16.78847  20.586181  -0.407024  2.860014  2.393251  -23.146928  18.332667  2.334705  -9.515973  3.915351  13.844645  -1.903721  1.696248  -1.533569  -1.722579  1.241713  2.654551  -4.569772  3.576473  7.169644  -4.569772  3.576473  7.169644  -16.193463  25.355969  4.947879  91.917955  59.06346  171.780096  -25.378601  -8.719406  75.375835  65.446732  -14.09356  -21.947286  21.201337  -16.924712  14.631062  109.881592  34.358796  58.400757  23.665696  18.849044  -11.511222  94.665099  -2.206141  -7.803603  -6.090077  -4.537721  -0.706652  -4.570429  -3.396659  -0.575084  
0.0  101.685394  0.0  3.336818  30.71364  -97.704814  1.520221  -18.094759  0.194056  -13.249841  16.919345  20.429623  -0.515941  2.858349  2.405153  -23.461087  18.395375  2.489775  -9.852225  3.929389  13.709879  -2.066762  1.701094  -1.550365  -1.804341  1.267521  2.630704  -4.791866  3.653965  7.098176  -4.791866  3.653965  7.098176  -16.2233  25.22166  4.834362  92.355092  58.523834  172.122781  -25.395851  -7.989194  76.209141  65.375237  -14.214767  -22.611145  22.874301  -17.106615  14.939594  108.832103  35.446555  58.270655  24.119861  17.862148  -10.905025  95.097759  -2.170625  -8.463041  -6.381887  -4.628544  -0.672787  -4.788919  -3.464839  -0.552816  
0.0  101.685394  0.0  3.361494  31.380175  -97.631166  1.525332  -18.129786  0.030894  -13.685916  17.047492  20.30235  -0.616568  2.8394  2.391939  -23.62476  18.394145  2.675  -10.120089  3.947175  13.588723  -2.233338  1.720376  -1.563148  -1.851098  1.288521  2.612089  -4.918571  3.714869  7.043196  -4.918571  3.714869  7.043196  -16.102005  25.157978  4.782911  92.079781  57.877607  172.429954  -25.433935  -7.555883  76.527616  65.286275  -14.201525  -23.558119  23.344722  -17.093126  14.973338  108.365411  36.198945  57.798642  24.615046  17.057063  -10.395882  95.443541  -2.227005  -8.784533  -6.567695  -4.735781  -0.609222  -4.927697  -3.545782  -0.507724  
0.0  101.685394  0.0  3.381747  32.114895  -97.507007  1.311911  -18.062803  -0.277082  -14.125761  17.171552  20.204228  -0.605097  2.832635  2.420687  -23.874106  18.379775  2.80998  -10.403906  3.948237  13.467097  -2.399839  1.763616  -1.577392  -1.921814  1.322789  2.587554  -5.109819  3.813948  6.969605  -5.109819  3.813948  6.969605  -15.963731  24.954093  4.712307  91.847357  57.208253  172.65558  -25.399892  -7.200571  76.781303  65.244109  -14.082214  -24.584315  24.72569  -17.388486  15.255343  106.887247  37.610159  57.39562  25.135383  16.451207  -9.954183  95.69274  -2.311451  -8.8663  -6.855019  -4.907292  -0.592317  -5.142887  -3.674381  -0.499208  
0.0  101.685394  0.0  3.391759  32.722677  -97.437968  1.298282  -18.097215  -0.424558  -14.570612  17.289978  20.064686  -0.628111  2.81855  2.412821  -23.98827  18.334068  2.977958  -10.65108  3.977596  13.368268  -2.585068  1.795022  -1.585205  -1.961203  1.344599  2.575062  -5.21605  3.876586  6.931541  -5.21605  3.876586  6.931541  -15.894342  24.83344  4.617666  91.471151  56.629096  172.722827  -25.237474  -6.886876  76.901162  65.042159  -14.010541  -25.432199  24.902335  -17.450848  15.236451  106.16258  38.491969  56.783037  25.681319  16.028636  -9.575068  95.840105  -2.360758  -8.813839  -7.039058  -5.029938  -0.556144  -5.280488  -3.766648  -0.474985  
